<?xml version="1.0" encoding="UTF-8"?>
<svg width="155px" height="118px" viewBox="0 0 155 118" version="1.1" xmlns="http://www.w3.org/2000/svg" xmlns:xlink="http://www.w3.org/1999/xlink">
    <!-- Generator: sketchtool 63.1 (101010) - https://sketch.com -->
    <title>63223F0C-B02B-49ED-A98E-E69FC4033DB0</title>
    <desc>Created with sketchtool.</desc>
    <g id="[UI]-PROVEEDOR-/-REGISTRAR-SUCURSALES" stroke="none" stroke-width="1" fill="none" fill-rule="evenodd">
        <g id="02_[Sucursal]Vista-aterrizaje" transform="translate(-652.000000, -192.000000)">
            <g id="Group-2" transform="translate(650.000000, 190.000000)">
                <g id="Group-4" fill="#E6EBED">
                    <path d="M96.1538462,17.6923077 C99.5525215,17.6923077 102.307692,20.4474785 102.307692,23.8461538 L102.307692,96.1538462 C102.307692,99.5525215 99.5525215,102.307692 96.1538462,102.307692 L23.8461538,102.307692 C20.4474785,102.307692 17.6923077,99.5525215 17.6923077,96.1538462 L17.6923077,23.8461538 C17.6923077,20.4474785 20.4474785,17.6923077 23.8461538,17.6923077" id="Path" transform="translate(60.000000, 60.000000) rotate(-315.000000) translate(-60.000000, -60.000000) "></path>
                </g>
                <g id="Group" transform="translate(53.000000, 20.000000)">
                    <path d="M-3.55271368e-14,100 L11.4116653,100 L11.4116653,39.3822394 L92.8148774,39.3822394 L92.8148774,100 L103.846154,100 L103.846154,17.7606178 C103.846154,8.10810811 95.8579882,0 86.3482671,0 L17.4978867,0 C7.98816568,0 -3.55271368e-14,8.10810811 -3.55271368e-14,17.7606178 L-3.55271368e-14,100 Z" id="Path" fill="#0D4D64"></path>
                    <path d="M62.9414611,46.1538462 C71.0691824,46.1538462 76.4876633,53.1036531 77.6487663,60.4395604 L83.8413159,60.4395604 L83.8413159,62.7561628 C83.8413159,63.9144639 83.0672472,64.6866647 81.9061442,64.6866647 L78.422835,64.6866647 C81.9061442,65.8449658 84.6153846,68.9337689 84.6153846,72.7947728 L84.6153846,89.010989 L77.6487663,89.010989 L77.6487663,93.2580933 C77.6487663,100.2079 67.1988389,100.2079 67.1988389,93.2580933 L67.1988389,89.010989 L40.8805031,89.010989 L40.8805031,93.2580933 C40.8805031,100.2079 30.0435414,100.2079 30.0435414,93.2580933 L30.0435414,89.010989 L23.0769231,89.010989 L23.0769231,72.7947728 C23.0769231,68.9337689 25.7861635,65.8449658 29.2694727,64.6866647 L26.1731979,64.6866647 C25.0120948,64.6866647 23.8509918,63.9144639 23.8509918,62.7561628 L23.8509918,60.4395604 L30.0435414,60.4395604 C31.2046444,53.1036531 37.0101597,46.1538462 44.7508466,46.1538462 L62.9414611,46.1538462 Z M35.4024354,73.3590734 C33.0858331,73.3590734 30.7692308,75.6756757 30.7692308,77.992278 C30.7692308,80.6949807 33.0858331,82.6254826 35.4024354,82.6254826 C38.1051381,82.6254826 40.03564,80.6949807 40.03564,77.992278 C40.03564,75.6756757 38.1051381,73.3590734 35.4024354,73.3590734 Z M72.8541729,73.3590734 C70.1514702,73.3590734 68.2209682,75.6756757 68.2209682,77.992278 C68.2209682,80.6949807 70.1514702,82.6254826 72.8541729,82.6254826 C75.5568756,82.6254826 77.4873775,80.6949807 77.4873775,77.992278 C77.4873775,75.6756757 75.5568756,73.3590734 72.8541729,73.3590734 Z M63.3692884,50.5791506 L44.1967942,50.5791506 C36.8541369,50.5791506 33.5907336,57.9150579 33.5907336,63.7065637 L73.975349,63.7065637 C73.975349,57.9150579 70.7119457,50.5791506 63.3692884,50.5791506 Z" id="Combined-Shape" fill="#EFA51E"></path>
                </g>
            </g>
        </g>
    </g>
</svg>